<svg width="31" height="10" viewBox="0 0 31 10" fill="none" xmlns="http://www.w3.org/2000/svg">
<path d="M3.18331 5.23537C4.31499 5.23537 5.22161 4.30822 5.22161 3.12908C5.22161 2.24272 4.65577 1.58836 3.76275 1.58836C2.64467 1.58836 1.72445 2.50858 1.72445 3.68772C1.72445 4.58101 2.29722 5.23537 3.18331 5.23537ZM4.015 -9.91821e-05C5.78051 -9.91821e-05 6.94632 1.26117 6.94632 2.93122C6.94632 5.09218 5.11254 6.81689 2.93105 6.81689C1.17221 6.81689 0 5.56256 0 3.88557C0 1.73128 1.84044 -9.91821e-05 4.015 -9.91821e-05Z" fill="#6196FF"/>
<path d="M10.8591 5.23537C11.9908 5.23537 12.8977 4.30822 12.8977 3.12908C12.8977 2.24272 12.3316 1.58836 11.4386 1.58836C10.3205 1.58836 9.40029 2.50858 9.40029 3.68772C9.40029 4.58101 9.97306 5.23537 10.8591 5.23537ZM11.6908 -9.91821e-05C13.4564 -9.91821e-05 14.6222 1.26117 14.6222 2.93122C14.6222 5.09218 12.7884 6.81689 10.6072 6.81689C8.84832 6.81689 7.67584 5.56256 7.67584 3.88557C7.67584 1.73128 9.51628 -9.91821e-05 11.6908 -9.91821e-05Z" fill="#6196FF"/>
<path d="M18.9033 5.385C20.0347 5.385 20.9552 4.45784 20.9552 3.2787C20.9552 2.37875 20.3894 1.70385 19.4828 1.70385C18.3511 1.70385 17.4173 2.6718 17.4173 3.83734C17.4173 4.72396 18.0034 5.385 18.9033 5.385ZM22.6935 3.01285C22.6935 5.26234 21.0438 6.95292 18.9985 6.95292C18.058 6.95292 17.3967 6.62547 17.0424 6.12789L16.5037 9.54346H14.7926L16.2651 0.272187H17.9148L17.8194 1.06308C18.3308 0.517775 19.0532 0.135927 20.0758 0.135927C21.6848 0.135927 22.6935 1.3356 22.6935 3.01285Z" fill="#26282D"/>
<path d="M23.4093 4.42395L24.0703 0.272425H25.7884L25.2567 3.59892C25.0796 4.7578 25.3657 5.36444 26.2926 5.36444C27.2539 5.36444 27.8264 4.7578 28.0107 3.59892L28.5424 0.272425H30.2535L29.2309 6.7553C28.9106 8.75253 27.063 9.67969 25.0999 9.67969C24.0501 9.67969 23.1776 9.4277 22.6525 9.13438L23.0888 7.63472C23.5386 7.90058 24.4114 8.12563 25.2292 8.12563C26.2723 8.12563 27.3563 7.72992 27.5198 6.7145L27.6085 6.16226C27.1995 6.57131 26.4769 6.98702 25.5292 6.98702C24.057 6.98702 23.1637 5.99854 23.4093 4.42395Z" fill="#26282D"/>
</svg>
